<!DOCTYPE svg PUBLIC "-//W3C//DTD SVG 20010904//EN" "http://www.w3.org/TR/2001/REC-SVG-20010904/DTD/svg10.dtd">
<svg version="1.0" xmlns="http://www.w3.org/2000/svg" width="1600px" height="381px" viewBox="0 0 16000 3810" preserveAspectRatio="xMidYMid meet">
<!-- www.vectorizer.io -->
<g fill="#8D8D8D" stroke="none">
 <path d="M9860 2480 l0 -1320 210 0 210 0 0 56 0 55 63 -45 c91 -65 169 -89 292 -88 381 1 615 249 676 717 24 186 -3 498 -57 665 -48 147 -102 237 -194 331 -135 138 -259 188 -460 189 -114 0 -207 -23 -273 -68 l-47 -31 0 292 0 292 -98 64 c-53 36 -148 98 -209 138 l-113 73 0 -1320z m822 120 c92 -26 183 -153 215 -303 20 -93 22 -349 4 -432 -46 -206 -130 -292 -298 -303 -64 -4 -79 -1 -127 22 -67 33 -146 110 -174 170 -21 44 -22 60 -22 333 0 281 1 289 24 338 26 57 110 138 171 166 45 21 148 25 207 9z"/>
 <path d="M1280 3585 l0 -45 120 0 120 0 0 45 0 45 -120 0 -120 0 0 -45z"/>
 <path d="M1612 3588 l3 -43 103 -3 102 -3 0 46 0 45 -106 0 -105 0 3 -42z"/>
 <path d="M1940 3585 l0 -45 90 0 90 0 0 45 0 45 -90 0 -90 0 0 -45z"/>
 <path d="M2260 3585 l0 -45 80 0 80 0 0 45 0 45 -80 0 -80 0 0 -45z"/>
 <path d="M1140 3597 c-30 -13 -68 -31 -85 -40 -30 -16 -29 -16 63 -17 l92 0 0 40 c0 22 -3 40 -7 40 -5 0 -33 -11 -63 -23z"/>
 <path d="M2580 3570 l0 -30 63 0 62 1 -55 29 c-30 16 -58 29 -62 30 -5 0 -8 -13 -8 -30z"/>
 <path d="M672 3308 c-7 -7 -12 -29 -12 -50 l0 -38 125 0 125 0 0 50 0 50 -113 0 c-75 0 -117 -4 -125 -12z"/>
 <path d="M970 3270 l0 -50 120 0 120 0 0 50 0 50 -120 0 -120 0 0 -50z"/>
 <path d="M1280 3270 l0 -50 120 0 120 0 0 50 0 50 -120 0 -120 0 0 -50z"/>
 <path d="M1617 3313 c-4 -3 -7 -26 -7 -50 l0 -43 105 0 105 0 0 50 0 50 -98 0 c-54 0 -102 -3 -105 -7z"/>
 <path d="M1940 3270 l0 -50 90 0 90 0 0 50 0 50 -90 0 -90 0 0 -50z"/>
 <path d="M2260 3270 l0 -50 80 0 80 0 0 50 0 50 -80 0 -80 0 0 -50z"/>
 <path d="M2580 3270 l0 -50 70 0 70 0 0 50 0 50 -70 0 -70 0 0 -50z"/>
 <path d="M2900 3270 l0 -50 60 0 60 0 0 50 0 50 -60 0 -60 0 0 -50z"/>
 <path d="M590 3235 c-10 -12 -10 -15 4 -15 9 0 16 7 16 15 0 8 -2 15 -4 15 -2 0 -9 -7 -16 -15z"/>
 <path d="M8597 3025 c-89 -17 -203 -66 -268 -116 -128 -97 -227 -265 -275 -465 -27 -112 -29 -131 -29 -339 0 -209 2 -225 28 -324 53 -199 125 -331 247 -452 183 -181 441 -240 689 -158 87 28 172 81 251 156 129 122 206 267 257 486 24 100 26 132 26 292 0 154 -4 197 -26 296 -72 333 -247 543 -512 614 -85 23 -290 28 -388 10z m279 -430 c129 -38 203 -167 225 -390 12 -125 0 -293 -27 -386 -50 -169 -148 -252 -299 -253 -134 -2 -220 65 -283 217 -43 103 -56 201 -49 370 9 228 67 365 181 424 66 35 171 42 252 18z"/>
 <path d="M13870 3033 c-181 -24 -338 -103 -439 -220 -264 -308 -270 -1067 -11 -1417 50 -68 147 -157 212 -194 29 -17 89 -43 133 -58 74 -26 92 -28 235 -28 142 0 162 2 235 27 252 84 411 275 475 572 18 83 23 143 27 353 l5 252 -542 0 -542 0 7 37 c16 88 91 173 193 221 50 24 69 27 157 27 117 -1 165 -18 231 -82 l42 -41 104 97 c57 53 121 112 143 132 l38 37 -44 50 c-94 108 -210 184 -334 219 -51 14 -261 25 -325 16z m440 -1156 c0 -40 -49 -170 -84 -223 -38 -57 -111 -110 -163 -120 -63 -12 -159 2 -206 29 -56 33 -109 92 -143 159 -25 49 -54 137 -54 166 0 9 72 12 325 12 l325 0 0 -23z"/>
 <path d="M15495 3020 c-115 -37 -212 -137 -255 -265 -45 -134 -50 -202 -50 -702 l0 -473 -95 0 -95 0 0 -210 0 -210 95 0 95 0 0 -152 0 -153 133 -74 c72 -41 166 -94 207 -117 l75 -42 3 269 2 269 160 0 160 0 0 210 0 210 -161 0 -160 0 3 453 c3 438 4 453 25 499 46 100 138 111 309 38 l44 -19 0 22 c0 12 -14 105 -30 207 -16 102 -30 195 -30 207 0 12 -8 24 -17 27 -110 32 -327 35 -418 6z"/>
 <path d="M365 2983 c-14 -21 -25 -48 -25 -60 0 -23 1 -23 135 -23 l135 0 0 60 0 60 -110 0 -109 0 -26 -37z"/>
 <path d="M660 2960 l0 -60 125 0 125 0 0 60 0 60 -125 0 -125 0 0 -60z"/>
 <path d="M970 2960 l0 -60 120 0 120 0 0 60 0 60 -120 0 -120 0 0 -60z"/>
 <path d="M1280 2960 l0 -60 120 0 120 0 0 60 0 60 -120 0 -120 0 0 -60z"/>
 <path d="M1617 3013 c-4 -3 -7 -30 -7 -60 l0 -53 105 0 105 0 0 60 0 60 -98 0 c-54 0 -102 -3 -105 -7z"/>
 <path d="M1940 2960 l0 -60 90 0 90 0 0 60 0 60 -90 0 -90 0 0 -60z"/>
 <path d="M2260 2960 l0 -60 80 0 80 0 0 60 0 60 -80 0 -80 0 0 -60z"/>
 <path d="M2580 2960 l0 -60 70 0 70 0 0 60 0 60 -70 0 -70 0 0 -60z"/>
 <path d="M2900 2960 l0 -60 60 0 60 0 0 60 0 60 -60 0 -60 0 0 -60z"/>
 <path d="M3230 2960 l0 -60 45 0 45 0 0 60 0 60 -45 0 -45 0 0 -60z"/>
 <path d="M4920 1825 l0 -1197 433 5 c465 5 495 8 647 62 364 131 631 455 706 860 25 134 25 409 1 544 -83 453 -374 768 -817 887 l-105 28 -432 4 -433 4 0 -1197z m692 765 c326 -32 580 -246 665 -560 25 -93 25 -328 -1 -425 -53 -200 -197 -380 -376 -469 -126 -62 -240 -86 -417 -86 l-133 0 0 775 0 775 83 0 c45 0 126 -5 179 -10z"/>
 <path d="M7080 2090 l0 -930 210 0 210 0 0 45 c0 25 2 45 5 45 3 0 25 -16 50 -35 55 -42 97 -55 196 -62 82 -6 158 10 216 46 l31 20 -69 202 c-38 111 -69 203 -69 206 0 2 -27 -10 -60 -27 -101 -51 -195 -31 -244 52 -53 90 -56 137 -56 779 l0 589 -210 0 -210 0 0 -930z"/>
 <path d="M12210 2561 l0 -458 -94 -199 c-51 -110 -117 -248 -146 -309 -29 -60 -69 -146 -90 -190 -21 -44 -56 -118 -78 -165 -22 -47 -97 -203 -165 -347 l-125 -263 238 0 237 0 63 137 c35 76 81 176 103 223 21 47 49 108 62 135 13 28 64 140 115 249 50 110 98 213 107 229 l15 30 80 -174 c44 -96 90 -196 102 -224 13 -27 81 -175 151 -327 l128 -278 233 0 233 0 -34 75 c-73 158 -105 225 -179 378 -42 87 -76 160 -76 162 0 1 -45 96 -100 210 -55 113 -100 208 -100 210 0 2 -39 84 -86 182 -48 98 -95 197 -105 221 -18 41 -19 75 -19 498 l0 454 -235 0 -235 0 0 -459z"/>
 <path d="M171 2652 c-17 -38 -31 -72 -31 -75 0 -4 36 -7 80 -7 l80 0 0 75 0 75 -49 0 -48 0 -32 -68z"/>
 <path d="M340 2645 l0 -75 135 0 135 0 0 75 0 75 -135 0 -135 0 0 -75z"/>
 <path d="M660 2645 l0 -75 125 0 125 0 0 75 0 75 -125 0 -125 0 0 -75z"/>
 <path d="M970 2645 l0 -75 120 0 120 0 0 75 0 75 -120 0 -120 0 0 -75z"/>
 <path d="M1280 2645 l0 -75 120 0 120 0 0 75 0 75 -120 0 -120 0 0 -75z"/>
 <path d="M1612 2648 l3 -73 103 -3 102 -3 0 76 0 75 -105 0 -106 0 3 -72z"/>
 <path d="M1940 2645 l0 -75 90 0 90 0 0 75 0 75 -90 0 -90 0 0 -75z"/>
 <path d="M2260 2645 l0 -75 80 0 80 0 0 75 0 75 -80 0 -80 0 0 -75z"/>
 <path d="M2580 2645 l0 -75 70 0 70 0 0 75 0 75 -70 0 -70 0 0 -75z"/>
 <path d="M2900 2645 l0 -75 60 0 60 0 0 75 0 75 -60 0 -60 0 0 -75z"/>
 <path d="M3230 2645 l0 -75 45 0 45 0 0 75 0 75 -45 0 -45 0 0 -75z"/>
 <path d="M3551 2628 c-1 -55 0 -58 24 -58 30 0 30 2 0 65 l-23 50 -1 -57z"/>
 <path d="M67 2363 c-8 -32 -18 -70 -21 -85 l-6 -28 130 0 130 0 0 85 0 85 -109 0 -108 0 -16 -57z"/>
 <path d="M340 2335 l0 -85 135 0 135 0 0 85 0 85 -135 0 -135 0 0 -85z"/>
 <path d="M660 2335 l0 -85 125 0 125 0 0 85 0 85 -125 0 -125 0 0 -85z"/>
 <path d="M970 2335 l0 -85 120 0 120 0 0 85 0 85 -120 0 -120 0 0 -85z"/>
 <path d="M1280 2335 l0 -85 120 0 120 0 0 85 0 85 -120 0 -120 0 0 -85z"/>
 <path d="M1617 2413 c-4 -3 -7 -42 -7 -85 l0 -78 105 0 105 0 0 85 0 85 -98 0 c-54 0 -102 -3 -105 -7z"/>
 <path d="M1940 2335 l0 -85 90 0 90 0 0 85 0 85 -90 0 -90 0 0 -85z"/>
 <path d="M2260 2335 l0 -85 80 0 80 0 0 85 0 85 -80 0 -80 0 0 -85z"/>
 <path d="M2580 2335 l0 -85 70 0 70 0 0 85 0 85 -70 0 -70 0 0 -85z"/>
 <path d="M2900 2335 l0 -85 60 0 60 0 0 85 0 85 -60 0 -60 0 0 -85z"/>
 <path d="M3230 2335 l0 -85 45 0 45 0 0 85 0 85 -45 0 -45 0 0 -85z"/>
 <path d="M3550 2335 l0 -85 40 0 40 0 0 85 0 85 -40 0 -40 0 0 -85z"/>
 <path d="M16 2098 c-3 -13 -7 -56 -9 -95 l-4 -73 148 0 149 0 0 95 0 95 -140 0 c-137 0 -140 0 -144 -22z"/>
 <path d="M340 2025 l0 -95 135 0 135 0 0 95 0 95 -135 0 -135 0 0 -95z"/>
 <path d="M660 2025 l0 -95 125 0 125 0 0 95 0 95 -125 0 -125 0 0 -95z"/>
 <path d="M970 2025 l0 -95 120 0 120 0 0 95 0 95 -120 0 -120 0 0 -95z"/>
 <path d="M1280 2025 l0 -95 120 0 120 0 0 95 0 95 -120 0 -120 0 0 -95z"/>
 <path d="M1617 2113 c-4 -3 -7 -46 -7 -95 l0 -88 105 0 105 0 0 95 0 95 -98 0 c-54 0 -102 -3 -105 -7z"/>
 <path d="M1940 2025 l0 -95 90 0 90 0 0 95 0 95 -90 0 -90 0 0 -95z"/>
 <path d="M2260 2025 l0 -95 80 0 80 0 0 95 0 95 -80 0 -80 0 0 -95z"/>
 <path d="M2580 2025 l0 -95 70 0 70 0 0 95 0 95 -70 0 -70 0 0 -95z"/>
 <path d="M2900 2025 l0 -95 60 0 60 0 0 95 0 95 -60 0 -60 0 0 -95z"/>
 <path d="M3230 2025 l0 -95 45 0 45 0 0 95 0 95 -45 0 -45 0 0 -95z"/>
 <path d="M3550 2025 l0 -95 40 0 40 0 0 95 0 95 -40 0 -40 0 0 -95z"/>
 <path d="M7 1753 c2 -32 6 -77 9 -100 l5 -43 140 0 139 0 0 100 0 100 -148 0 -149 0 4 -57z"/>
 <path d="M340 1710 l0 -100 135 0 135 0 0 100 0 100 -135 0 -135 0 0 -100z"/>
 <path d="M660 1710 l0 -100 125 0 125 0 0 100 0 100 -125 0 -125 0 0 -100z"/>
 <path d="M970 1710 l0 -100 120 0 120 0 0 100 0 100 -120 0 -120 0 0 -100z"/>
 <path d="M1280 1710 l0 -100 120 0 120 0 0 100 0 100 -120 0 -120 0 0 -100z"/>
 <path d="M1610 1710 l0 -100 105 0 105 0 0 100 0 100 -105 0 -105 0 0 -100z"/>
 <path d="M1940 1710 l0 -100 90 0 90 0 0 100 0 100 -90 0 -90 0 0 -100z"/>
 <path d="M2260 1710 l0 -100 80 0 80 0 0 100 0 100 -80 0 -80 0 0 -100z"/>
 <path d="M2580 1710 l0 -100 70 0 70 0 0 100 0 100 -70 0 -70 0 0 -100z"/>
 <path d="M2900 1710 l0 -100 60 0 60 0 0 100 0 100 -60 0 -60 0 0 -100z"/>
 <path d="M3230 1710 l0 -100 45 0 45 0 0 100 0 100 -45 0 -45 0 0 -100z"/>
 <path d="M3550 1710 l0 -100 40 0 40 0 0 100 0 100 -40 0 -40 0 0 -100z"/>
 <path d="M40 1505 c0 -3 12 -53 26 -110 l26 -105 104 0 104 0 0 110 0 110 -130 0 c-72 0 -130 -2 -130 -5z"/>
 <path d="M340 1400 l0 -110 135 0 135 0 0 110 0 110 -135 0 -135 0 0 -110z"/>
 <path d="M660 1400 l0 -110 125 0 125 0 0 110 0 110 -125 0 -125 0 0 -110z"/>
 <path d="M970 1400 l0 -110 120 0 120 0 0 110 0 110 -120 0 -120 0 0 -110z"/>
 <path d="M1280 1400 l0 -110 120 0 120 0 0 110 0 110 -120 0 -120 0 0 -110z"/>
 <path d="M1610 1400 l0 -110 105 0 105 0 0 110 0 110 -105 0 -105 0 0 -110z"/>
 <path d="M1940 1400 l0 -110 90 0 90 0 0 110 0 110 -90 0 -90 0 0 -110z"/>
 <path d="M2260 1400 l0 -110 80 0 80 0 0 110 0 110 -80 0 -80 0 0 -110z"/>
 <path d="M2580 1400 l0 -110 70 0 70 0 0 110 0 110 -70 0 -70 0 0 -110z"/>
 <path d="M2900 1400 l0 -110 60 0 60 0 0 110 0 110 -60 0 -60 0 0 -110z"/>
 <path d="M3230 1400 l0 -110 45 0 45 0 0 110 0 110 -45 0 -45 0 0 -110z"/>
 <path d="M3550 1400 l0 -110 40 0 40 0 0 110 0 110 -40 0 -40 0 0 -110z"/>
 <path d="M130 1199 c0 -7 23 -61 52 -120 50 -107 52 -109 85 -109 l33 0 0 120 0 120 -85 0 c-57 0 -85 -4 -85 -11z"/>
 <path d="M340 1090 l0 -120 135 0 135 0 0 120 0 120 -135 0 -135 0 0 -120z"/>
 <path d="M660 1090 l0 -120 125 0 125 0 0 120 0 120 -125 0 -125 0 0 -120z"/>
 <path d="M970 1090 l0 -120 120 0 120 0 0 120 0 120 -120 0 -120 0 0 -120z"/>
 <path d="M1280 1090 l0 -120 120 0 120 0 0 120 0 120 -120 0 -120 0 0 -120z"/>
 <path d="M1610 1090 l0 -120 105 0 105 0 0 120 0 120 -105 0 -105 0 0 -120z"/>
 <path d="M1940 1090 l0 -120 90 0 90 0 0 120 0 120 -90 0 -90 0 0 -120z"/>
 <path d="M2260 1090 l0 -120 80 0 80 0 0 120 0 120 -80 0 -80 0 0 -120z"/>
 <path d="M2580 1090 l0 -120 70 0 70 0 0 120 0 120 -70 0 -70 0 0 -120z"/>
 <path d="M2900 1090 l0 -120 60 0 60 0 0 120 0 120 -60 0 -60 0 0 -120z"/>
 <path d="M3230 1090 l0 -120 45 0 45 0 0 120 0 120 -45 0 -45 0 0 -120z"/>
 <path d="M3550 1138 l0 -73 24 51 c41 89 42 94 7 94 l-31 0 0 -72z"/>
 <path d="M281 893 c7 -10 15 -20 16 -22 2 -2 3 5 3 17 0 14 -6 22 -16 22 -14 0 -15 -3 -3 -17z"/>
 <path d="M340 856 c0 -52 3 -59 60 -130 l60 -76 75 0 75 0 0 130 0 130 -135 0 -135 0 0 -54z"/>
 <path d="M660 780 l0 -130 125 0 125 0 0 130 0 130 -125 0 -125 0 0 -130z"/>
 <path d="M970 780 l0 -130 120 0 120 0 0 130 0 130 -120 0 -120 0 0 -130z"/>
 <path d="M1280 780 l0 -130 120 0 120 0 0 130 0 130 -120 0 -120 0 0 -130z"/>
 <path d="M1610 780 l0 -130 105 0 105 0 0 130 0 130 -105 0 -105 0 0 -130z"/>
 <path d="M1940 780 l0 -130 90 0 90 0 0 130 0 130 -90 0 -90 0 0 -130z"/>
 <path d="M2260 780 l0 -130 80 0 80 0 0 130 0 130 -80 0 -80 0 0 -130z"/>
 <path d="M2580 780 l0 -130 70 0 70 0 0 130 0 130 -70 0 -70 0 0 -130z"/>
 <path d="M2900 780 l0 -130 60 0 60 0 0 130 0 130 -60 0 -60 0 0 -130z"/>
 <path d="M3230 780 l0 -130 24 0 c15 0 33 11 45 26 18 23 21 41 21 130 l0 104 -45 0 -45 0 0 -130z"/>
 <path d="M510 602 c0 -4 23 -30 50 -57 l50 -49 0 57 0 57 -50 0 c-27 0 -50 -4 -50 -8z"/>
 <path d="M660 531 l0 -80 78 -60 c69 -55 82 -61 125 -61 l47 0 0 140 0 140 -125 0 -125 0 0 -79z"/>
 <path d="M970 470 l0 -140 120 0 120 0 0 140 0 140 -120 0 -120 0 0 -140z"/>
 <path d="M1280 470 l0 -140 120 0 120 0 0 140 0 140 -120 0 -120 0 0 -140z"/>
 <path d="M1617 603 c-4 -3 -7 -66 -7 -140 l0 -133 105 0 105 0 0 140 0 140 -98 0 c-54 0 -102 -3 -105 -7z"/>
 <path d="M1940 470 l0 -140 90 0 90 0 0 140 0 140 -90 0 -90 0 0 -140z"/>
 <path d="M2260 470 l0 -140 80 0 80 0 0 140 0 140 -80 0 -80 0 0 -140z"/>
 <path d="M2580 470 l0 -140 70 0 70 0 0 140 0 140 -70 0 -70 0 0 -140z"/>
 <path d="M2900 469 c0 -160 -3 -156 77 -96 l42 32 1 103 0 102 -60 0 -60 0 0 -141z"/>
 <path d="M880 290 c19 -13 30 -13 30 0 0 6 -10 10 -22 10 -19 0 -20 -2 -8 -10z"/>
 <path d="M970 270 c0 -27 7 -33 70 -65 39 -20 93 -44 120 -55 l50 -20 0 85 0 85 -120 0 -120 0 0 -30z"/>
 <path d="M1280 201 l0 -99 33 -11 c17 -6 64 -18 102 -26 39 -9 78 -18 88 -21 16 -5 17 6 17 125 l0 131 -120 0 -120 0 0 -99z"/>
 <path d="M1610 166 c0 -74 3 -137 8 -139 4 -3 51 -8 105 -12 l97 -7 0 146 0 146 -105 0 -105 0 0 -134z"/>
 <path d="M1940 155 l0 -145 44 0 c24 0 64 3 90 6 l46 7 0 138 0 139 -90 0 -90 0 0 -145z"/>
 <path d="M2260 174 c0 -115 1 -125 18 -120 9 3 37 10 62 16 25 6 53 13 63 16 15 5 17 19 17 110 l0 104 -80 0 -80 0 0 -126z"/>
 <path d="M2580 225 l0 -75 33 14 c17 8 49 21 70 30 35 15 37 19 37 61 l0 45 -70 0 -70 0 0 -75z"/>
 </g>

</svg>