<?xml version="1.0" standalone="no"?>
<!DOCTYPE svg PUBLIC "-//W3C//DTD SVG 20010904//EN"
 "http://www.w3.org/TR/2001/REC-SVG-20010904/DTD/svg10.dtd">
<svg version="1.0" xmlns="http://www.w3.org/2000/svg"
 width="811.000000pt" height="811.000000pt" viewBox="0 0 811.000000 811.000000"
 preserveAspectRatio="xMidYMid meet">
<metadata>
Created by potrace 1.11, written by Peter Selinger 2001-2013
</metadata>
<g transform="translate(0.000000,811.000000) scale(0.100000,-0.100000)"
fill="#000000" stroke="none">
<path d="M4029 8096 c-2 -2 -49 -7 -104 -10 -123 -8 -227 -16 -252 -21 -10 -2
-32 -4 -48 -4 l-31 -1 0 -310 0 -310 234 2 235 3 1 315 c1 173 -3 321 -8 328
-9 12 -19 15 -27 8z"/>
<path d="M4314 7770 l0 -330 208 0 c114 0 209 3 209 8 5 26 3 604 -1 607 -19
12 -212 37 -305 41 l-111 4 0 -330z"/>
<path d="M3349 8015 c-3 -2 -23 -7 -45 -10 -54 -9 -175 -39 -326 -82 l-128
-37 0 -223 0 -223 270 0 270 0 0 290 c0 275 -1 290 -18 290 -10 0 -21 -2 -23
-5z"/>
<path d="M5029 7995 c-4 -42 -3 -539 2 -546 3 -6 84 -8 190 -7 l184 3 1 228
c1 158 -2 230 -10 235 -24 16 -366 97 -367 87z"/>
<path d="M2530 7756 c-91 -40 -211 -96 -267 -125 l-103 -53 0 -69 0 -69 270 0
c209 0 270 3 271 13 4 52 3 377 -1 376 -3 0 -79 -33 -170 -73z"/>
<path d="M5749 7757 c-2 -12 -4 -87 -4 -167 l1 -145 166 -3 167 -2 -1 95 c0
86 -3 98 -22 110 -21 14 -187 88 -262 118 -41 16 -42 16 -45 -6z"/>
<path d="M1980 7474 l-55 -34 63 0 62 0 0 29 c0 17 -3 32 -7 34 -5 2 -33 -11
-63 -29z"/>
<path d="M1783 7347 c-97 -61 -323 -251 -324 -271 -3 -60 -4 -293 -1 -307 3
-14 34 -16 280 -17 152 0 285 1 295 4 16 5 17 27 16 310 0 167 -3 305 -7 305
-4 1 -54 2 -110 3 -99 2 -106 1 -149 -27z"/>
<path d="M2170 7372 c-7 -3 -10 -108 -10 -312 l1 -307 272 -1 272 0 -1 312 -1
311 -261 0 c-144 0 -266 -1 -272 -3z"/>
<path d="M2850 7064 l0 -311 270 -1 270 0 0 312 0 311 -270 0 -270 0 0 -311z"/>
<path d="M3597 7365 c-2 -5 -3 -145 -3 -310 l1 -300 233 -2 c169 -1 232 2 233
10 6 109 2 600 -6 605 -17 11 -454 8 -458 -3z"/>
<path d="M4321 7365 c-4 -5 -7 -145 -7 -310 l1 -300 210 0 210 0 0 303 c0 167
-2 307 -5 311 -8 11 -400 8 -409 -4z"/>
<path d="M5029 7355 c-3 -57 -4 -572 -1 -587 3 -15 24 -16 191 -16 l188 1 -1
311 -1 311 -187 0 c-182 1 -188 0 -189 -20z"/>
<path d="M5749 7355 c-3 -62 -4 -573 -1 -587 3 -14 23 -16 167 -16 l163 1 -1
311 -2 311 -162 0 c-156 0 -163 0 -164 -20z"/>
<path d="M6469 7323 c0 -63 0 -554 1 -564 0 -4 61 -7 135 -7 l135 0 1 32 c0
17 1 116 1 221 l0 190 -49 42 c-60 54 -182 137 -205 141 -15 2 -18 -6 -19 -55z"/>
<path d="M1270 6917 c-52 -52 -110 -110 -128 -130 l-32 -36 129 2 130 1 0 128
c0 70 -1 128 -2 128 -1 0 -45 -42 -97 -93z"/>
<path d="M7190 6771 c0 -12 6 -21 15 -21 8 0 15 4 15 9 0 5 -7 14 -15 21 -13
10 -15 9 -15 -9z"/>
<path d="M946 6570 c-45 -58 -108 -139 -138 -180 l-55 -75 -2 -117 c-1 -114 0
-118 22 -122 12 -3 150 -4 307 -3 l285 2 2 298 2 297 -97 0 c-53 1 -130 2
-170 3 l-73 2 -83 -105z"/>
<path d="M1467 6668 c-8 -5 -11 -97 -11 -300 l1 -293 296 -1 297 -1 0 298 0
299 -47 0 c-431 4 -527 4 -536 -2z"/>
<path d="M2238 6672 l-77 -3 2 -297 2 -297 269 0 269 0 1 288 c1 159 -1 293
-4 298 -6 8 -323 16 -462 11z"/>
<path d="M2943 6672 l-93 -3 0 -298 0 -298 270 0 270 -1 0 299 0 299 -42 0
c-24 0 -104 2 -178 3 -74 1 -177 1 -227 -1z"/>
<path d="M3635 6670 l-40 -5 0 -295 0 -295 234 0 234 0 0 292 c0 161 -2 295
-5 298 -7 7 -373 11 -423 5z"/>
<path d="M4375 6670 l-60 -5 0 -295 0 -295 210 -1 210 -2 0 299 0 299 -35 1
c-19 0 -87 1 -150 2 -63 1 -142 0 -175 -3z"/>
<path d="M5029 6670 c-3 -14 -4 -577 -1 -586 2 -8 63 -11 191 -11 l188 0 -1
299 -1 299 -188 2 c-103 1 -187 0 -188 -3z"/>
<path d="M5813 6672 c-40 -2 -63 -7 -64 -15 -4 -46 -3 -570 1 -577 3 -4 77 -7
165 -6 l160 1 1 298 2 297 -37 1 c-20 0 -65 1 -101 2 -36 1 -93 1 -127 -1z"/>
<path d="M6510 6672 l-45 -3 2 -242 c1 -133 2 -267 2 -298 l1 -56 135 -1 135
0 1 31 c2 136 0 559 -3 562 -6 6 -171 11 -228 7z"/>
<path d="M7190 6553 c-1 -158 -1 -358 0 -426 l0 -53 110 -2 c98 -1 110 1 111
16 5 81 2 449 -3 457 -4 6 -28 35 -53 65 -45 53 -47 55 -105 60 l-60 5 0 -122z"/>
<path d="M640 6148 c-19 -29 -38 -57 -42 -63 -4 -7 8 -11 38 -12 l44 -2 0 65
c0 35 -1 64 -3 64 -1 0 -18 -23 -37 -52z"/>
<path d="M522 5948 c-12 -15 -137 -269 -171 -348 -13 -30 -30 -68 -37 -85 -20
-46 -44 -107 -44 -111 0 -2 92 -4 205 -4 l205 0 0 280 0 280 -74 0 c-47 0 -77
-5 -84 -12z"/>
<path d="M752 5680 l0 -280 308 0 308 0 1 280 1 280 -309 0 -308 0 -1 -280z"/>
<path d="M1459 5948 c0 -7 -1 -133 -2 -281 l-2 -267 297 0 298 0 -1 280 0 280
-295 0 c-228 0 -294 -3 -295 -12z"/>
<path d="M2160 5680 l0 -280 273 0 272 0 -2 268 c0 147 -2 273 -2 280 -1 9
-62 12 -271 12 l-270 0 0 -280z"/>
<path d="M2850 5680 l0 -280 270 0 270 0 0 280 0 280 -270 0 -270 0 0 -280z"/>
<path d="M3594 5680 l0 -280 233 0 c215 0 233 1 234 18 1 21 1 524 0 535 -1 4
-106 7 -234 7 l-233 0 0 -280z"/>
<path d="M4314 5680 l0 -280 207 0 c157 0 208 3 211 13 2 6 4 131 4 277 l-1
265 -210 3 -211 2 0 -280z"/>
<path d="M5028 5948 c-2 -7 -3 -132 -3 -278 l1 -265 189 0 190 0 1 278 1 277
-187 0 c-142 0 -189 -3 -192 -12z"/>
<path d="M5748 5948 c-2 -7 -3 -132 -3 -278 l1 -265 164 0 165 0 2 278 1 277
-163 0 c-122 0 -164 -3 -167 -12z"/>
<path d="M6469 5953 c0 -4 0 -129 -1 -278 l0 -270 136 -3 136 -3 1 46 c0 25 1
150 1 278 l1 232 -136 3 c-76 1 -137 -1 -138 -5z"/>
<path d="M7189 5935 c0 -14 0 -108 0 -210 0 -102 0 -217 0 -255 l1 -71 112 3
112 3 1 265 c0 146 -1 271 -3 278 -3 8 -35 12 -113 12 l-109 0 -1 -25z"/>
<path d="M7910 5690 c-2 -142 0 -283 4 -287 2 -2 37 -3 78 -1 l75 3 -63 150
c-98 231 -93 224 -94 135z"/>
<path d="M190 5181 c-20 -71 -89 -330 -95 -360 -2 -10 -8 -35 -13 -55 l-10
-36 304 0 304 0 -2 258 -3 257 -233 1 -232 0 -20 -65z"/>
<path d="M755 5241 c-1 -4 -3 -120 -3 -258 l0 -253 308 0 309 0 0 258 0 259
-305 -1 c-168 0 -307 -2 -309 -5z"/>
<path d="M1459 5216 c-1 -36 -1 -442 0 -468 1 -17 22 -18 296 -18 l295 0 0
258 0 258 -295 0 -295 0 -1 -30z"/>
<path d="M2160 4988 l0 -258 270 0 c209 0 270 3 271 13 1 16 1 490 0 498 -1 3
-122 6 -271 5 l-270 0 0 -258z"/>
<path d="M2850 4988 l0 -258 270 0 270 0 0 258 0 258 -270 0 -270 0 0 -258z"/>
<path d="M3599 5246 c-1 -1 -3 -117 -4 -259 l-2 -257 235 2 236 3 -1 245 c-1
135 -2 250 -2 256 -1 7 -74 11 -231 11 -126 0 -231 -1 -231 -1z"/>
<path d="M4317 5236 c-2 -6 -3 -121 -3 -256 l1 -245 210 -3 210 -2 -1 252 c-1
139 -2 256 -3 259 -2 11 -410 6 -414 -5z"/>
<path d="M5033 5241 c-5 -3 -8 -120 -8 -259 l0 -252 191 0 191 0 -1 258 -1
257 -182 1 c-101 0 -186 -2 -190 -5z"/>
<path d="M5748 5231 c-2 -9 -3 -124 -3 -256 l1 -240 166 -3 166 -2 -1 257 -2
258 -162 1 c-140 1 -162 -1 -165 -15z"/>
<path d="M6469 5219 c0 -16 0 -112 0 -214 0 -102 0 -205 0 -230 l1 -45 135 0
135 0 1 28 c0 41 1 423 0 458 l-1 31 -135 0 -135 0 -1 -28z"/>
<path d="M7193 5238 c-4 -8 -6 -228 -3 -465 l0 -43 113 0 112 0 -1 252 c-1
139 -2 256 -3 259 -2 10 -211 6 -218 -3z"/>
<path d="M7909 5234 c0 -8 0 -79 0 -159 0 -80 0 -190 0 -245 l1 -100 100 0
100 0 0 258 0 258 -100 1 c-77 0 -100 -3 -101 -13z"/>
<path d="M39 4520 c0 -8 -2 -22 -4 -31 -3 -17 -12 -109 -20 -214 -12 -149 -14
-215 -7 -216 10 -1 644 -1 660 0 9 1 12 56 12 239 l0 237 -320 0 c-278 0 -320
-2 -321 -15z"/>
<path d="M755 4530 c-6 -10 -3 -470 4 -471 9 -1 572 -1 593 0 15 1 16 23 15
238 l-2 238 -303 0 c-167 0 -305 -2 -307 -5z"/>
<path d="M1459 4523 c-1 -17 -1 -439 0 -455 1 -10 65 -13 288 -11 159 1 291 2
296 2 4 1 7 107 7 236 0 129 -3 236 -7 236 -5 1 -137 2 -295 3 -225 1 -288 -2
-289 -11z"/>
<path d="M2162 4296 l3 -239 263 0 c176 0 266 3 270 10 5 8 8 437 3 463 -1 3
-123 5 -271 5 l-270 0 2 -239z"/>
<path d="M2854 4525 c-3 -6 -3 -113 -2 -239 l3 -229 245 0 c135 1 255 2 268 2
l22 1 0 235 c0 129 -3 236 -7 236 -5 1 -124 2 -267 3 -169 1 -260 -2 -262 -9z"/>
<path d="M3599 4530 c-5 -16 -4 -470 0 -471 8 -1 432 -1 451 0 13 1 15 33 14
231 0 127 -4 233 -8 238 -8 8 -455 10 -457 2z"/>
<path d="M4319 4530 c-1 -3 -2 -110 -3 -237 -2 -184 1 -233 11 -234 17 -1 379
-1 396 0 16 1 18 470 2 472 -37 4 -405 3 -406 -1z"/>
<path d="M5032 4525 c-11 -17 -8 -465 3 -466 14 -1 348 -1 361 0 8 1 11 73 10
238 l-1 238 -183 0 c-114 0 -186 -3 -190 -10z"/>
<path d="M5749 4530 c-6 -33 -2 -463 5 -467 7 -5 224 -7 303 -4 21 1 21 1 20
238 l-2 237 -162 1 c-90 0 -163 -2 -164 -5z"/>
<path d="M6469 4500 c-3 -159 0 -433 5 -437 4 -5 194 -8 256 -4 13 1 15 33 14
232 -1 126 -5 233 -9 237 -3 4 -65 7 -136 7 l-129 1 -1 -36z"/>
<path d="M7193 4533 c-8 -3 -7 -462 1 -471 3 -2 52 -5 110 -6 88 -1 106 1 107
14 4 57 3 443 -1 453 -3 9 -36 12 -107 12 -56 0 -105 -1 -110 -2z"/>
<path d="M7909 4400 c0 -74 0 -179 -1 -233 0 -54 2 -101 5 -104 4 -3 49 -6
102 -7 l95 -1 0 238 c0 130 -3 238 -7 238 -5 1 -50 2 -100 3 l-93 2 -1 -136z"/>
<path d="M4 3809 c-2 -3 -2 -37 1 -75 11 -189 17 -273 23 -309 l7 -40 323 0
322 0 -2 215 -3 214 -333 1 c-184 0 -336 -3 -338 -6z"/>
<path d="M759 3810 c-6 -18 -6 -420 0 -421 3 -1 140 -2 304 -3 257 -1 298 1
302 14 7 25 4 410 -3 411 -24 4 -602 3 -603 -1z"/>
<path d="M1473 3810 c-17 -5 -18 -20 -17 -195 1 -104 2 -199 3 -210 1 -20 8
-20 294 -20 l292 0 3 213 c2 116 -1 212 -5 213 -30 4 -555 3 -570 -1z"/>
<path d="M2164 3811 c-2 -2 -4 -99 -4 -215 l1 -211 269 0 c149 0 270 2 271 5
5 31 2 405 -3 413 -5 9 -82 12 -268 12 -144 0 -263 -2 -266 -4z"/>
<path d="M2859 3809 c-6 -3 -8 -92 -7 -215 l3 -209 265 0 265 0 0 215 0 215
-258 0 c-142 0 -263 -2 -268 -6z"/>
<path d="M3601 3810 c-4 -3 -7 -99 -7 -215 l1 -210 233 0 c127 0 232 2 233 5
1 7 1 369 0 400 l-1 25 -226 0 c-124 0 -229 -2 -233 -5z"/>
<path d="M4319 3815 c-6 0 -4 -412 2 -420 9 -12 394 -14 406 -2 12 13 10 417
-2 418 -7 1 -335 4 -406 4z"/>
<path d="M5042 3809 c-15 -5 -16 -28 -17 -212 0 -175 2 -206 15 -209 8 -2 94
-4 190 -3 l175 0 1 213 c1 149 -2 212 -10 213 -40 5 -340 3 -354 -2z"/>
<path d="M5749 3795 c-3 -59 -4 -382 -1 -395 3 -13 28 -15 165 -15 l162 0 1
215 1 215 -163 0 c-157 0 -164 -1 -165 -20z"/>
<path d="M6479 3809 c-9 -5 -14 -206 -10 -394 l1 -30 129 0 c71 0 132 3 136 7
9 9 9 407 1 416 -9 8 -244 10 -257 1z"/>
<path d="M7199 3809 c-14 -8 -15 -409 -1 -418 9 -5 192 -7 212 -2 3 0 5 96 5
211 0 116 -2 210 -5 211 -23 5 -203 3 -211 -2z"/>
<path d="M7920 3810 c-9 -6 -12 -101 -11 -330 l1 -96 98 1 97 1 0 214 0 214
-88 1 c-48 1 -92 -2 -97 -5z"/>
<path d="M89 3090 c-6 -25 23 -152 66 -296 l25 -81 250 0 250 0 0 189 c0 143
-3 188 -12 189 -45 4 -578 3 -579 -1z"/>
<path d="M760 3090 c-4 -3 -7 -88 -6 -190 l1 -185 307 -1 306 -1 1 188 c0 104
-3 189 -7 190 -27 4 -595 3 -602 -1z"/>
<path d="M1459 3085 c-4 -42 -3 -365 1 -367 3 -1 136 -2 297 -3 l292 -2 0 189
c0 103 -3 188 -7 189 -4 1 -136 2 -295 3 -185 0 -287 -3 -288 -9z"/>
<path d="M2163 3085 c-2 -6 -2 -92 -1 -190 l3 -180 268 -1 c185 0 267 3 268
10 4 43 3 359 -1 364 -9 12 -532 8 -537 -3z"/>
<path d="M2854 3091 c-2 -2 -4 -88 -4 -191 l0 -186 270 -1 270 0 -2 190 -3
191 -263 1 c-145 0 -266 -2 -268 -4z"/>
<path d="M3601 3085 c-4 -5 -7 -91 -7 -190 l1 -180 233 -1 c230 -1 232 -1 233
20 1 29 1 317 0 341 -1 19 -8 20 -227 20 -139 0 -229 -4 -233 -10z"/>
<path d="M4321 3085 c-4 -5 -7 -91 -7 -190 l1 -180 208 -1 c114 -1 208 2 208
5 7 38 2 364 -5 369 -18 10 -397 8 -405 -3z"/>
<path d="M5037 3088 c-9 -4 -12 -57 -10 -185 1 -98 2 -181 2 -184 1 -3 85 -6
189 -5 l187 1 1 188 c1 103 -2 187 -5 188 -27 5 -355 3 -364 -3z"/>
<path d="M5757 3088 c-9 -4 -12 -58 -11 -190 l1 -183 164 0 164 0 0 190 0 189
-153 1 c-84 0 -159 -3 -165 -7z"/>
<path d="M6478 3089 c-5 -4 -10 -82 -10 -190 l-1 -184 137 -1 136 -2 1 37 c0
57 1 314 0 331 -1 13 -22 15 -127 15 -69 0 -130 -3 -136 -6z"/>
<path d="M7199 3089 c-8 -5 -12 -122 -9 -335 l0 -41 113 0 112 0 0 190 0 191
-103 1 c-57 0 -108 -2 -113 -6z"/>
<path d="M7919 3089 c-8 -5 -13 -176 -10 -345 l1 -31 100 0 100 1 0 188 c0
103 -3 188 -7 189 -30 4 -177 3 -184 -2z"/>
<path d="M305 2369 c-2 -3 19 -57 47 -120 27 -63 60 -135 71 -161 l21 -48 118
0 118 0 0 165 c0 125 -3 165 -12 166 -58 4 -361 3 -363 -2z"/>
<path d="M755 2370 c-2 -3 -3 -78 -3 -168 l0 -162 307 2 306 3 2 163 c2 123 0
162 -10 163 -48 4 -600 3 -602 -1z"/>
<path d="M1473 2370 c-16 -5 -18 -18 -16 -157 0 -84 2 -158 2 -163 1 -7 101
-9 294 -8 l292 3 2 163 c1 118 -2 162 -10 163 -46 4 -550 3 -564 -1z"/>
<path d="M2164 2371 c-2 -2 -4 -78 -4 -168 l0 -163 270 0 c250 0 270 1 271 18
4 71 3 281 -2 296 -5 18 -19 19 -268 20 -145 1 -265 -1 -267 -3z"/>
<path d="M2850 2208 l0 -168 270 0 270 0 0 165 c0 125 -3 165 -12 166 -7 1
-129 2 -270 3 l-258 1 0 -167z"/>
<path d="M3599 2370 c-1 -3 -3 -78 -4 -167 l-2 -163 234 0 c200 0 233 2 234
15 1 20 1 257 0 293 l-1 27 -230 0 c-127 0 -231 -2 -231 -5z"/>
<path d="M4316 2370 c-1 -3 -2 -77 -2 -165 l1 -160 208 -3 c114 -1 208 1 208
5 1 5 2 79 3 166 1 133 -1 157 -14 158 -65 4 -402 3 -404 -1z"/>
<path d="M5033 2366 c-3 -5 -6 -80 -7 -167 l-1 -159 191 0 191 0 0 165 c1 118
-2 165 -10 166 -86 5 -360 2 -364 -5z"/>
<path d="M5752 2370 c-4 -3 -7 -77 -7 -165 l1 -160 166 -2 167 -2 0 165 c0 90
-4 164 -7 165 -31 4 -315 3 -320 -1z"/>
<path d="M6474 2368 c-5 -7 -7 -113 -5 -255 l1 -73 135 0 135 0 1 28 c3 113 0
294 -5 300 -9 9 -257 9 -262 0z"/>
<path d="M7195 2369 c-4 -5 -7 -206 -6 -296 l1 -33 113 0 112 0 0 159 c0 88
-4 163 -8 167 -8 8 -207 11 -212 3z"/>
<path d="M7914 2365 c-4 -10 -11 -275 -7 -275 14 0 128 268 118 278 -10 10
-107 7 -111 -3z"/>
<path d="M773 1652 c-19 -3 -22 -9 -22 -56 0 -45 6 -62 40 -112 77 -117 47
-105 275 -105 109 0 223 0 251 1 l53 0 -3 137 -2 136 -285 1 c-157 1 -295 0
-307 -2z"/>
<path d="M1477 1652 c-9 -2 -18 -13 -18 -25 -4 -68 -1 -238 3 -243 5 -4 149
-6 476 -4 l112 0 -1 135 c0 96 -4 135 -12 136 -45 2 -547 3 -560 1z"/>
<path d="M2188 1652 l-27 -3 0 -135 -1 -134 53 -1 c217 -2 480 1 484 5 7 7 10
256 3 264 -5 7 -459 10 -512 4z"/>
<path d="M2850 1518 l0 -137 228 -3 c125 -2 246 -2 270 0 l42 3 0 135 0 134
-27 1 c-16 0 -137 1 -270 2 l-243 2 0 -137z"/>
<path d="M3625 1650 l-31 -5 0 -132 -1 -133 76 -1 c230 -1 384 1 389 6 7 7 6
254 -1 262 -8 7 -389 10 -432 3z"/>
<path d="M4333 1650 c-17 -5 -19 -17 -19 -137 l0 -133 75 -1 c73 -1 189 0 296
1 l50 0 0 129 c0 71 -3 133 -7 137 -9 8 -366 12 -395 4z"/>
<path d="M5049 1650 c-22 -5 -22 -10 -23 -129 -1 -67 2 -127 5 -133 5 -7 259
-13 365 -9 8 1 11 44 10 138 l-1 136 -167 1 c-92 1 -177 -1 -189 -4z"/>
<path d="M5769 1650 c-22 -5 -23 -10 -23 -134 -1 -70 2 -130 7 -133 6 -4 178
-6 299 -4 l27 1 -1 129 c0 70 -3 132 -7 137 -6 10 -265 13 -302 4z"/>
<path d="M6487 1652 c-9 -2 -17 -9 -18 -15 -3 -58 1 -250 5 -254 6 -6 257 -5
263 1 7 6 6 256 0 263 -6 6 -224 10 -250 5z"/>
<path d="M7207 1652 c-13 -3 -16 -21 -19 -95 -2 -51 -2 -111 0 -134 l3 -42
101 -3 c55 -2 105 0 111 4 16 10 16 259 -1 265 -14 6 -170 10 -195 5z"/>
<path d="M1279 931 c-6 -2 11 -23 37 -48 49 -45 49 -45 52 -19 7 56 0 69 -41
70 -20 1 -42 -1 -48 -3z"/>
<path d="M1485 930 l-30 -5 0 -80 c0 -78 1 -81 34 -110 l34 -29 251 -1 c138 0
257 1 264 3 8 3 12 35 12 113 0 97 -2 109 -17 110 -78 4 -524 3 -548 -1z"/>
<path d="M2177 932 c-15 -3 -17 -18 -17 -113 0 -60 3 -109 8 -110 37 -5 511
-3 522 2 12 6 15 27 14 108 -1 56 -4 104 -8 108 -6 6 -488 11 -519 5z"/>
<path d="M2882 932 l-33 -3 3 -112 3 -111 265 0 265 0 3 112 c1 62 -1 112 -5
113 -24 3 -473 3 -501 1z"/>
<path d="M3609 932 c-23 -4 -22 -221 0 -223 9 -1 114 -2 233 -3 211 -1 218 0
219 19 1 23 1 159 0 190 -1 19 -8 20 -219 20 -120 0 -225 -1 -233 -3z"/>
<path d="M4332 929 c-14 -5 -17 -22 -18 -112 -1 -89 2 -106 15 -109 14 -3 328
-2 386 1 19 1 20 8 20 105 0 57 -3 107 -7 111 -8 9 -372 12 -396 4z"/>
<path d="M5049 930 c-24 -5 -24 -7 -23 -105 1 -55 2 -104 3 -110 1 -8 295 -13
367 -6 7 1 10 39 10 113 l-1 111 -166 1 c-91 1 -176 -1 -190 -4z"/>
<path d="M5765 932 c-19 -3 -20 -10 -19 -108 0 -64 5 -108 11 -112 6 -4 80 -7
165 -7 l153 1 1 112 c1 77 -2 112 -10 113 -37 2 -284 4 -301 1z"/>
<path d="M6487 932 c-9 -2 -17 -7 -17 -10 -4 -56 -1 -204 4 -209 4 -4 65 -7
136 -8 l130 0 1 50 c0 28 1 66 3 85 1 19 -1 48 -4 64 l-6 30 -115 0 c-63 1
-123 0 -132 -2z"/>
<path d="M2280 209 c0 -15 407 -195 418 -184 3 2 5 45 6 95 1 73 -2 90 -14 91
-70 4 -410 3 -410 -2z"/>
<path d="M2883 212 l-33 -3 0 -100 0 -99 270 0 270 0 0 100 c0 73 -3 100 -12
101 -40 3 -468 3 -495 1z"/>
<path d="M3607 208 c-8 -5 -12 -42 -13 -103 l-1 -95 234 0 c215 0 233 1 234
18 3 53 0 174 -4 179 -9 8 -437 9 -450 1z"/>
<path d="M4319 215 c-1 0 -3 -46 -4 -103 l-2 -102 211 2 211 3 0 98 c0 90 -1
97 -20 98 -14 0 -359 4 -396 4z"/>
<path d="M5042 209 c-14 -6 -17 -21 -16 -100 l0 -94 191 -3 190 -2 1 100 0
100 -36 1 c-191 4 -316 3 -330 -2z"/>
<path d="M5752 206 c-3 -6 -6 -38 -6 -73 -1 -52 1 -62 14 -58 48 17 298 131
294 134 -8 8 -296 5 -302 -3z"/>
</g>
</svg>
